<?xml version="1.0" encoding="UTF-8"?>
<svg xmlns="http://www.w3.org/2000/svg" xmlns:xlink="http://www.w3.org/1999/xlink" width="40pt" height="40pt" viewBox="0 0 40 40" version="1.1">
<g id="surface1">
<path style=" stroke:none;fill-rule:evenodd;fill:rgb(0.392157%,0.392157%,0.392157%);fill-opacity:1;" d="M 20.875 15.960938 C 22.445312 16.324219 23.695312 17.664062 24.058594 19.125 C 24.183594 19.808594 24.777344 20.324219 25.492188 20.324219 C 26.289062 20.324219 26.945312 19.667969 26.945312 18.871094 C 26.945312 17.824219 26.066406 16.230469 24.867188 15.039062 C 23.6875 13.875 22.285156 13.054688 21.128906 13.054688 C 20.332031 13.054688 19.675781 13.730469 19.675781 14.53125 C 19.675781 15.242188 20.191406 15.839844 20.875 15.960938 Z M 7.320312 19.960938 C 7.320312 20.695312 7.378906 21.421875 7.503906 22.121094 L 4.964844 22.949219 C 4.007812 23.257812 3.484375 24.285156 3.796875 25.238281 C 4.109375 26.195312 5.132812 26.710938 6.085938 26.40625 L 8.621094 25.578125 C 9.269531 26.886719 10.132812 28.070312 11.164062 29.074219 L 9.59375 31.238281 C 9.007812 32.054688 9.1875 33.1875 10.003906 33.777344 C 10.808594 34.367188 11.949219 34.191406 12.539062 33.378906 L 14.109375 31.210938 C 15.367188 31.878906 16.753906 32.34375 18.222656 32.550781 L 18.222656 35.222656 C 18.222656 36.226562 19.039062 37.039062 20.039062 37.039062 C 21.042969 37.039062 21.855469 36.226562 21.855469 35.222656 L 21.855469 32.550781 C 23.324219 32.34375 24.714844 31.878906 25.972656 31.210938 L 27.542969 33.378906 C 28.128906 34.191406 29.269531 34.367188 30.078125 33.777344 C 30.890625 33.1875 31.074219 32.054688 30.484375 31.238281 L 28.90625 29.074219 C 29.945312 28.070312 30.8125 26.886719 31.453125 25.578125 L 33.996094 26.40625 C 34.949219 26.710938 35.972656 26.195312 36.285156 25.238281 C 36.597656 24.285156 36.074219 23.257812 35.113281 22.949219 L 32.578125 22.121094 C 32.703125 21.421875 32.761719 20.695312 32.761719 19.960938 C 32.761719 19.226562 32.703125 18.5 32.578125 17.800781 L 35.113281 16.972656 C 36.074219 16.660156 36.597656 15.636719 36.285156 14.683594 C 35.972656 13.722656 34.949219 13.207031 33.996094 13.511719 L 31.453125 14.339844 C 30.8125 13.035156 29.945312 11.847656 28.90625 10.839844 L 30.484375 8.679688 C 31.074219 7.867188 30.890625 6.730469 30.078125 6.144531 C 29.269531 5.554688 28.128906 5.726562 27.542969 6.542969 L 25.972656 8.699219 C 24.707031 8.039062 23.324219 7.574219 21.855469 7.371094 L 21.855469 4.695312 C 21.855469 3.695312 21.042969 2.878906 20.039062 2.878906 C 19.039062 2.878906 18.222656 3.695312 18.222656 4.695312 L 18.222656 7.371094 C 16.753906 7.574219 15.367188 8.039062 14.109375 8.699219 L 12.539062 6.542969 C 11.949219 5.726562 10.808594 5.554688 10.003906 6.144531 C 9.1875 6.730469 9.007812 7.867188 9.59375 8.679688 L 11.164062 10.839844 C 10.132812 11.847656 9.269531 13.035156 8.621094 14.339844 L 6.085938 13.511719 C 5.132812 13.207031 4.109375 13.722656 3.796875 14.683594 C 3.484375 15.636719 4.007812 16.660156 4.964844 16.972656 L 7.503906 17.800781 C 7.378906 18.5 7.320312 19.226562 7.320312 19.960938 Z M 10.953125 19.960938 C 10.953125 14.945312 15.023438 10.875 20.039062 10.875 C 25.054688 10.875 29.125 14.945312 29.125 19.960938 C 29.125 24.976562 25.054688 29.046875 20.039062 29.046875 C 15.023438 29.046875 10.953125 24.976562 10.953125 19.960938 Z M 10.953125 19.960938 "/>
</g>
</svg>
