<?xml version="1.0" encoding="UTF-8"?>
<svg xmlns="http://www.w3.org/2000/svg" xmlns:xlink="http://www.w3.org/1999/xlink" width="40pt" height="40pt" viewBox="0 0 40 40" version="1.1">
<g id="surface1">
<path style=" stroke:none;fill-rule:nonzero;fill:rgb(0%,0%,0%);fill-opacity:1;" d="M 19.953125 3.328125 C 10.765625 3.328125 3.328125 10.785156 3.328125 19.972656 C 3.328125 29.15625 10.765625 36.613281 19.953125 36.613281 C 29.15625 36.613281 36.613281 29.15625 36.613281 19.972656 C 36.613281 10.785156 29.15625 3.328125 19.953125 3.328125 Z M 19.972656 33.285156 C 12.613281 33.285156 6.65625 27.328125 6.65625 19.972656 C 6.65625 12.613281 12.613281 6.65625 19.972656 6.65625 C 27.328125 6.65625 33.285156 12.613281 33.285156 19.972656 C 33.285156 27.328125 27.328125 33.285156 19.972656 33.285156 Z M 19.972656 33.285156 "/>
<path style=" stroke:none;fill-rule:nonzero;fill:rgb(0%,0%,0%);fill-opacity:1;" d="M 20.804688 11.648438 L 18.304688 11.648438 L 18.304688 21.636719 L 27.042969 26.878906 L 28.292969 24.828125 L 20.804688 20.386719 Z M 20.804688 11.648438 "/>
<path style="fill:none;stroke-width:12;stroke-linecap:butt;stroke-linejoin:miter;stroke:rgb(18.039216%,32.156863%,64.313725%);stroke-opacity:1;stroke-miterlimit:10;" d="M 214.451367 235.425586 C 201.225586 249.45293 190.003711 254.262305 176.77793 255.531445 " transform="matrix(0.116959,0,0,0.116959,0,0)"/>
<path style=" stroke:none;fill-rule:nonzero;fill:rgb(18.039216%,32.156863%,64.313725%);fill-opacity:1;" d="M 21.269531 27.738281 L 17.652344 29.867188 L 21.304688 31.9375 Z M 21.269531 27.738281 "/>
<path style="fill:none;stroke-width:12;stroke-linecap:butt;stroke-linejoin:miter;stroke:rgb(18.039216%,32.156863%,64.313725%);stroke-opacity:1;stroke-miterlimit:10;" d="M 241.904883 192.909375 C 251.924414 176.443945 253.594336 164.353711 251.289844 151.261523 " transform="matrix(0.116959,0,0,0.116959,0,0)"/>
<path style=" stroke:none;fill-rule:nonzero;fill:rgb(18.039216%,32.156863%,64.313725%);fill-opacity:1;" d="M 31.515625 17.761719 L 28.550781 14.785156 L 27.457031 18.839844 Z M 31.515625 17.761719 "/>
</g>
</svg>
