<?xml version="1.0" encoding="UTF-8" standalone="no"?>
<svg
   xmlns:dc="http://purl.org/dc/elements/1.1/"
   xmlns:cc="http://creativecommons.org/ns#"
   xmlns:rdf="http://www.w3.org/1999/02/22-rdf-syntax-ns#"
   xmlns:svg="http://www.w3.org/2000/svg"
   xmlns="http://www.w3.org/2000/svg"
   xmlns:sodipodi="http://sodipodi.sourceforge.net/DTD/sodipodi-0.dtd"
   xmlns:inkscape="http://www.inkscape.org/namespaces/inkscape"
   inkscape:version="1.0 (4035a4fb49, 2020-05-01)"
   sodipodi:docname="clock-timer-black.svg"
   id="svg8"
   version="1.1"
   viewBox="0 0 32 32">
  <metadata
     id="metadata14">
    <rdf:RDF>
      <cc:Work
         rdf:about="">
        <dc:format>image/svg+xml</dc:format>
        <dc:type
           rdf:resource="http://purl.org/dc/dcmitype/StillImage" />
        <dc:title></dc:title>
      </cc:Work>
    </rdf:RDF>
  </metadata>
  <defs
     id="defs12" />
  <sodipodi:namedview
     inkscape:current-layer="svg8"
     inkscape:window-maximized="1"
     inkscape:window-y="-8"
     inkscape:window-x="72"
     inkscape:cy="10.214418"
     inkscape:cx="12.2132"
     inkscape:zoom="15.75"
     showgrid="false"
     id="namedview10"
     inkscape:window-height="1177"
     inkscape:window-width="1840"
     inkscape:pageshadow="2"
     inkscape:pageopacity="0"
     guidetolerance="10"
     gridtolerance="10"
     objecttolerance="10"
     borderopacity="1"
     bordercolor="#666666"
     pagecolor="#ffffff" />
  <g
     transform="matrix(0.99965302,0,0,1,5.5863983e-4,0)"
     id="g6"
     data-name="Layer 2">
    <path
       id="path2"
       d="m 16.21,7.06 a 9.49,9.49 0 1 0 9.49,9.49 9.5,9.5 0 0 0 -9.49,-9.49 z m 1,9.91 -4.21,4.2 a 1,1 0 0 1 -0.7,0.29 1,1 0 0 1 -0.71,-0.29 1,1 0 0 1 0,-1.41 l 3.62,-3.62 v -3.45 a 1,1 0 0 1 2,0 z M 4.14,20.23 2.22,20.81 a 14.41,14.41 0 0 0 0.78,2 L 4.81,22 A 10.56,10.56 0 0 1 4.14,20.23 Z m 20.86,4.89 1.46,1.37 a 15.3,15.3 0 0 0 1.35,-1.66 L 26.17,23.68 A 11.5,11.5 0 0 1 25,25.12 Z M 4.07,24.68 a 14.31,14.31 0 0 0 1.34,1.68 L 6.88,25 A 11.44,11.44 0 0 1 5.73,23.55 Z m 23.06,-2.59 1.79,0.89 a 14.3,14.3 0 0 0 0.81,-2 l -1.91,-0.61 a 12,12 0 0 1 -0.69,1.72 z m 1.28,-5.35 a 12.69,12.69 0 0 1 -0.16,1.84 l 2,0.32 a 15.43,15.43 0 0 0 0.18,-2.14 z m -24.8,0.44 c 0,-0.2 0,-0.4 0,-0.6 h -2 c 0,0.23 0,0.45 0,0.71 a 13.58,13.58 0 0 0 0.14,1.43 l 2,-0.29 C 3.67,18 3.63,17.61 3.61,17.18 Z M 7,27.82 A 14.16,14.16 0 0 0 8.74,29 l 1,-1.73 a 13.16,13.16 0 0 1 -1.52,-1 z m 15.12,-0.43 1,1.74 a 15,15 0 0 0 1.79,-1.19 l -1.24,-1.58 a 11.17,11.17 0 0 1 -1.55,1.03 z m -3.44,1.32 0.43,2 A 14.79,14.79 0 0 0 21.17,30 l -0.72,-1.87 a 12,12 0 0 1 -1.77,0.58 z M 10.67,30 a 15.24,15.24 0 0 0 2,0.65 l 0.45,-2 A 12.41,12.41 0 0 1 11.36,28.09 Z M 16.6,29 H 16 c -0.31,0 -0.66,0 -1,0 l -0.16,2 c 0.37,0 0.74,0 1.11,0 0.37,0 0.5,0 0.74,0 H 17 l -0.16,-2 z" />
    <path
       style="stroke-width:1.00295"
       id="path4"
       d="m 26.030816,7.4663604 a 0.9785713,0.90838149 0 0 1 -0.145744,0 0.9785713,0.90838149 0 0 1 -0.145742,0 h -3.404182 a 1.0410346,0.96636385 0 0 1 0,-1.9327277 H 22.73074 A 12.898405,11.973235 0 0 0 3.7631083,15.535489 L 1.6810411,15.43885 A 14.980473,13.905959 0 0 1 24.989783,4.5479431 V 3.3399887 a 1.0410343,0.96636386 0 0 1 2.082068,0 v 3.160008 a 1.0410336,0.96636325 0 0 1 -1.041035,0.9663637 z" />
  </g>
  <path
     id="path16"
     d="m 30.243535,17.876713 -3.074372,-0.36745"
     style="fill:#ff0000;stroke:#ff0000;stroke-width:1.46539px;stroke-linecap:butt;stroke-linejoin:miter;stroke-opacity:1" />
  <path
     style="fill:#ff0000;stroke:#ff0000;stroke-width:1.46539px;stroke-linecap:butt;stroke-linejoin:miter;stroke-opacity:1"
     d="M 7.9168476,28.301521 9.7383734,25.797759"
     id="path16-8" />
</svg>
