<svg xmlns="http://www.w3.org/2000/svg" height="60" width="40" xmlns:v="https://vecta.io/nano"><path d="M26.204 25.908c2.611-2.381 6.142-5.6 6.464-13.293H35v-2.308H5v2.308h2.331c.322 7.692 3.853 10.912 6.464 13.293 1.752 1.597 2.743 2.574 2.743 4.092s-.991 2.495-2.743 4.092c-2.611 2.381-6.142 5.6-6.464 13.293H5v2.308h30v-2.308h-2.331c-.322-7.692-3.853-10.912-6.464-13.293-1.752-1.597-2.743-2.574-2.743-4.092s.991-2.495 2.743-4.092zm-7.358 12.741c-.356.074-.708.181-1.052.323l-7.067 2.925c1.154-2.935 3.013-4.63 4.624-6.099 1.798-1.639 3.496-3.187 3.496-5.797zm5.803-2.852c1.611 1.469 3.47 3.164 4.624 6.099l-7.067-2.925c-.344-.142-.696-.249-1.052-.323V30c0 2.61 1.698 4.158 3.496 5.797zM10.686 18c-.558-1.454-.943-3.209-1.044-5.385h20.716c-.101 2.176-.486 3.931-1.044 5.385z" fill="#fff"/></svg>