<?xml version="1.0" encoding="UTF-8" standalone="no"?>
<svg
   xmlns:dc="http://purl.org/dc/elements/1.1/"
   xmlns:cc="http://creativecommons.org/ns#"
   xmlns:rdf="http://www.w3.org/1999/02/22-rdf-syntax-ns#"
   xmlns:svg="http://www.w3.org/2000/svg"
   xmlns="http://www.w3.org/2000/svg"
   xmlns:sodipodi="http://sodipodi.sourceforge.net/DTD/sodipodi-0.dtd"
   xmlns:inkscape="http://www.inkscape.org/namespaces/inkscape"
   inkscape:version="1.0 (4035a4fb49, 2020-05-01)"
   sodipodi:docname="injectSun-white.svg"
   id="svg4"
   version="1.1"
   viewBox="0, 0, 40, 60"
   height="60"
   width="40">
  <metadata
     id="metadata10">
    <rdf:RDF>
      <cc:Work
         rdf:about="">
        <dc:format>image/svg+xml</dc:format>
        <dc:type
           rdf:resource="http://purl.org/dc/dcmitype/StillImage" />
        <dc:title></dc:title>
      </cc:Work>
    </rdf:RDF>
  </metadata>
  <defs
     id="defs8" />
  <sodipodi:namedview
     inkscape:current-layer="svg4"
     inkscape:window-maximized="1"
     inkscape:window-y="-8"
     inkscape:window-x="72"
     inkscape:cy="32.003994"
     inkscape:cx="24.18443"
     inkscape:zoom="11.879394"
     showgrid="false"
     id="namedview6"
     inkscape:window-height="1177"
     inkscape:window-width="1840"
     inkscape:pageshadow="2"
     inkscape:pageopacity="0"
     guidetolerance="10"
     gridtolerance="10"
     objecttolerance="10"
     borderopacity="1"
     bordercolor="#666666"
     pagecolor="#ffffff" />
  <path
     style="fill:#ffffff;stroke-width:0.846429"
     id="path2"
     fill="#fff"
     d="m 26.047088,10.575113 v 10.157143 h -9.310714 v 7.617857 h 12.696428 v -5.925 l 5.078572,9.310715 -5.078572,10.157143 V 35.121542 H 16.736374 v 7.617857 h 9.310714 v 10.157143 l 11.85,-21.160714 z" />
  <g
     style="fill:#ffffff"
     id="surface1"
     transform="matrix(0.52939608,0,0,0.52939608,0.05291033,0.05291048)">
    <path
       style="fill:#ffffff;fill-opacity:1;fill-rule:nonzero;stroke:none"
       d="m 20,11.058594 c -4.929688,0 -8.941406,4.011718 -8.941406,8.941406 0,4.929688 4.011718,8.941406 8.941406,8.941406 4.929688,0 8.941406,-4.011718 8.941406,-8.941406 0,-4.929688 -4.011718,-8.941406 -8.941406,-8.941406 z m 0,16.585937 c -4.214844,0 -7.644531,-3.429687 -7.644531,-7.644531 0,-4.214844 3.429687,-7.644531 7.644531,-7.644531 4.214844,0 7.644531,3.429687 7.644531,7.644531 0,4.214844 -3.429687,7.644531 -7.644531,7.644531 z m 0,0"
       id="path2-1" />
    <path
       style="fill:#ffffff;fill-opacity:1;fill-rule:nonzero;stroke:none"
       d="m 20,9.589844 c 0.359375,0 0.648438,-0.289063 0.648438,-0.648438 V 0.648438 C 20.648438,0.289062 20.359375,0 20,0 19.640625,0 19.351562,0.289062 19.351562,0.648438 v 8.292968 c 0,0.359375 0.289063,0.648438 0.648438,0.648438 z m 0,0"
       id="path4" />
    <path
       style="fill:#ffffff;fill-opacity:1;fill-rule:nonzero;stroke:none"
       d="m 20,30.410156 c -0.359375,0 -0.648438,0.289063 -0.648438,0.648438 v 8.292968 C 19.351562,39.710938 19.640625,40 20,40 c 0.359375,0 0.648438,-0.289062 0.648438,-0.648438 v -8.292968 c 0,-0.359375 -0.289063,-0.648438 -0.648438,-0.648438 z m 0,0"
       id="path6" />
    <path
       style="fill:#ffffff;fill-opacity:1;fill-rule:nonzero;stroke:none"
       d="m 9.589844,20 c 0,-0.359375 -0.289063,-0.648438 -0.648438,-0.648438 H 0.648438 C 0.289062,19.351562 0,19.640625 0,20 c 0,0.359375 0.289062,0.648438 0.648438,0.648438 h 8.292968 c 0.359375,0 0.648438,-0.289063 0.648438,-0.648438 z m 0,0"
       id="path8" />
    <path
       style="fill:#ffffff;fill-opacity:1;fill-rule:nonzero;stroke:none"
       d="m 39.351562,19.351562 h -8.292968 c -0.359375,0 -0.648438,0.289063 -0.648438,0.648438 0,0.359375 0.289063,0.648438 0.648438,0.648438 h 8.292968 C 39.710938,20.648438 40,20.359375 40,20 40,19.640625 39.710938,19.351562 39.351562,19.351562 Z m 0,0"
       id="path10" />
    <path
       style="fill:#ffffff;fill-opacity:1;fill-rule:nonzero;stroke:none"
       d="m 14.792969,29.015625 c -0.308594,-0.179687 -0.703125,-0.07422 -0.882813,0.238281 l -1.382812,2.394532 c -0.179688,0.308593 -0.07422,0.703124 0.238281,0.882812 0.101563,0.05859 0.210937,0.08594 0.324219,0.08594 0.222656,0 0.441406,-0.113282 0.558594,-0.320313 l 1.382812,-2.394531 c 0.179688,-0.3125 0.07422,-0.707032 -0.238281,-0.886719 z m 0,0"
       id="path12" />
    <path
       style="fill:#ffffff;fill-opacity:1;fill-rule:nonzero;stroke:none"
       d="m 12.03125,33.804688 c -0.3125,-0.179688 -0.707031,-0.07422 -0.886719,0.238281 l -0.691406,1.195312 c -0.179687,0.308594 -0.07031,0.707031 0.238281,0.886719 0.101563,0.05859 0.214844,0.08594 0.324219,0.08594 0.222656,0 0.441406,-0.117188 0.5625,-0.324219 l 0.6875,-1.199219 c 0.179687,-0.308594 0.07422,-0.703125 -0.234375,-0.882812 z m 0,0"
       id="path14" />
    <path
       style="fill:#ffffff;fill-opacity:1;fill-rule:nonzero;stroke:none"
       d="m 25.207031,10.984375 c 0.101563,0.05859 0.210938,0.08594 0.320313,0.08594 0.226562,0 0.441406,-0.117187 0.5625,-0.324218 L 27.472656,8.351562 C 27.652344,8.042969 27.546875,7.648438 27.234375,7.46875 26.925781,7.289062 26.527344,7.394531 26.351562,7.703125 l -1.382812,2.394531 c -0.179688,0.3125 -0.07422,0.707032 0.238281,0.886719 z m 0,0"
       id="path16" />
    <path
       style="fill:#ffffff;fill-opacity:1;fill-rule:nonzero;stroke:none"
       d="m 27.96875,6.195312 c 0.101562,0.058594 0.214844,0.085938 0.324219,0.085938 0.222656,0 0.441406,-0.113281 0.5625,-0.324219 L 29.546875,4.761719 C 29.726562,4.453125 29.617188,4.054688 29.308594,3.875 29,3.699219 28.601562,3.804688 28.421875,4.113281 l -0.6875,1.199219 c -0.179687,0.308594 -0.07422,0.703125 0.234375,0.882812 z m 0,0"
       id="path18" />
    <path
       style="fill:#ffffff;fill-opacity:1;fill-rule:nonzero;stroke:none"
       d="m 26.089844,29.253906 c -0.179688,-0.3125 -0.574219,-0.417968 -0.882813,-0.238281 -0.3125,0.179687 -0.417969,0.574219 -0.238281,0.886719 l 1.382812,2.394531 c 0.117188,0.207031 0.335938,0.320313 0.558594,0.320313 0.113282,0 0.222656,-0.02734 0.324219,-0.08594 0.3125,-0.179688 0.417969,-0.574219 0.238281,-0.882812 z m 0,0"
       id="path20" />
    <path
       style="fill:#ffffff;fill-opacity:1;fill-rule:nonzero;stroke:none"
       d="M 28.855469,34.042969 C 28.675781,33.730469 28.28125,33.625 27.96875,33.804688 27.660156,33.984375 27.554688,34.378906 27.734375,34.6875 l 0.6875,1.199219 c 0.121094,0.207031 0.339844,0.324219 0.5625,0.324219 0.109375,0 0.222656,-0.02734 0.324219,-0.08594 0.308594,-0.179688 0.417968,-0.578125 0.238281,-0.886719 z m 0,0"
       id="path22" />
    <path
       style="fill:#ffffff;fill-opacity:1;fill-rule:nonzero;stroke:none"
       d="m 13.910156,10.746094 c 0.121094,0.207031 0.335938,0.324218 0.5625,0.324218 0.109375,0 0.21875,-0.02734 0.320313,-0.08594 0.3125,-0.179687 0.417969,-0.574219 0.238281,-0.886719 L 13.648438,7.703125 C 13.472656,7.394531 13.074219,7.289062 12.765625,7.46875 c -0.3125,0.179688 -0.417969,0.574219 -0.238281,0.882812 z m 0,0"
       id="path24" />
    <path
       style="fill:#ffffff;fill-opacity:1;fill-rule:nonzero;stroke:none"
       d="m 11.144531,5.957031 c 0.121094,0.210938 0.339844,0.324219 0.5625,0.324219 0.109375,0 0.222657,-0.027344 0.324219,-0.085938 0.308594,-0.179687 0.414062,-0.574218 0.234375,-0.882812 l -0.6875,-1.199219 C 11.398438,3.804688 11,3.699219 10.691406,3.875 10.382812,4.054688 10.273438,4.453125 10.453125,4.761719 Z m 0,0"
       id="path26" />
    <path
       style="fill:#ffffff;fill-opacity:1;fill-rule:nonzero;stroke:none"
       d="M 32.296875,26.351562 29.902344,24.96875 c -0.3125,-0.179688 -0.707032,-0.07422 -0.886719,0.238281 -0.179687,0.308594 -0.07422,0.703125 0.238281,0.882813 l 2.394532,1.382812 c 0.101562,0.05859 0.210937,0.08594 0.320312,0.08594 0.226562,0 0.441406,-0.117188 0.5625,-0.324219 0.179688,-0.308594 0.07422,-0.707031 -0.234375,-0.882813 z m 0,0"
       id="path28" />
    <path
       style="fill:#ffffff;fill-opacity:1;fill-rule:nonzero;stroke:none"
       d="m 35.886719,28.421875 -1.199219,-0.6875 c -0.308594,-0.179687 -0.703125,-0.07422 -0.882812,0.234375 -0.179688,0.3125 -0.07422,0.707031 0.238281,0.886719 l 1.195312,0.691406 c 0.101563,0.05859 0.214844,0.08594 0.324219,0.08594 0.222656,0 0.441406,-0.117187 0.5625,-0.324218 C 36.300781,29 36.195312,28.601562 35.886719,28.421875 Z m 0,0"
       id="path30" />
    <path
       style="fill:#ffffff;fill-opacity:1;fill-rule:nonzero;stroke:none"
       d="m 7.703125,13.648438 2.394531,1.382812 c 0.105469,0.05859 0.214844,0.08594 0.324219,0.08594 0.226563,0 0.441406,-0.113282 0.5625,-0.324219 0.179687,-0.308594 0.07422,-0.703125 -0.238281,-0.882813 L 8.351562,12.527344 C 8.042969,12.347656 7.648438,12.453125 7.46875,12.765625 7.289062,13.074219 7.394531,13.472656 7.703125,13.648438 Z m 0,0"
       id="path32" />
    <path
       style="fill:#ffffff;fill-opacity:1;fill-rule:nonzero;stroke:none"
       d="m 4.113281,11.578125 1.199219,0.6875 c 0.101562,0.0625 0.210938,0.08984 0.320312,0.08984 0.226563,0 0.441407,-0.117188 0.5625,-0.324219 C 6.375,11.71875 6.269531,11.324219 5.957031,11.144531 L 4.761719,10.453125 C 4.453125,10.273438 4.054688,10.382812 3.875,10.691406 3.699219,11 3.804688,11.398438 4.113281,11.578125 Z m 0,0"
       id="path34" />
    <path
       style="fill:#ffffff;fill-opacity:1;fill-rule:nonzero;stroke:none"
       d="m 29.015625,14.792969 c 0.121094,0.210937 0.335937,0.324219 0.5625,0.324219 0.109375,0 0.21875,-0.02734 0.324219,-0.08594 l 2.394531,-1.382812 c 0.308594,-0.175782 0.414063,-0.574219 0.234375,-0.882813 -0.179688,-0.3125 -0.574219,-0.417969 -0.882812,-0.238281 l -2.394532,1.382812 c -0.3125,0.179688 -0.417968,0.574219 -0.238281,0.882813 z m 0,0"
       id="path36" />
    <path
       style="fill:#ffffff;fill-opacity:1;fill-rule:nonzero;stroke:none"
       d="m 34.367188,12.355469 c 0.109374,0 0.21875,-0.02734 0.320312,-0.08984 l 1.199219,-0.6875 C 36.195312,11.398438 36.300781,11 36.125,10.691406 35.945312,10.382812 35.546875,10.273438 35.238281,10.453125 l -1.195312,0.691406 c -0.3125,0.179688 -0.417969,0.574219 -0.238281,0.886719 0.121093,0.207031 0.335937,0.324219 0.5625,0.324219 z m 0,0"
       id="path38" />
    <path
       style="fill:#ffffff;fill-opacity:1;fill-rule:nonzero;stroke:none"
       d="m 10.984375,25.207031 c -0.179687,-0.3125 -0.574219,-0.417969 -0.886719,-0.238281 l -2.394531,1.382812 c -0.308594,0.175782 -0.414063,0.574219 -0.234375,0.882813 0.121094,0.207031 0.335938,0.324219 0.5625,0.324219 0.109375,0 0.21875,-0.02734 0.320312,-0.08594 l 2.394532,-1.382812 c 0.3125,-0.179688 0.417968,-0.574219 0.238281,-0.882813 z m 0,0"
       id="path40" />
    <path
       style="fill:#ffffff;fill-opacity:1;fill-rule:nonzero;stroke:none"
       d="m 5.3125,27.734375 -1.199219,0.6875 C 3.804688,28.601562 3.699219,29 3.875,29.308594 c 0.121094,0.207031 0.339844,0.324218 0.5625,0.324218 0.109375,0 0.222656,-0.02734 0.324219,-0.08594 L 5.957031,28.855469 C 6.269531,28.675781 6.375,28.28125 6.195312,27.96875 6.015625,27.660156 5.621094,27.554688 5.3125,27.734375 Z m 0,0"
       id="path42" />
  </g>
  <g
     style="fill:#ffffff"
     transform="matrix(0.02906811,0,0,0.02906811,0.16040013,42.327594)"
     id="g8">
    <g
       style="fill:#ffffff"
       id="g6">
      <path
         style="fill:#ffffff"
         d="M 587.572,186.881 C 555.306,111.656 500.476,56.947 424.623,24.596 386.711,8.427 346.992,0.168 305.497,0.168 264.009,0.168 224.583,8.349 186.713,24.596 111.488,56.861 56.415,111.535 24.092,186.881 7.895,224.629 0,264.176 0,305.664 c 0,41.496 7.895,81.371 24.092,119.127 32.323,75.346 87.403,130.348 162.621,162.621 37.877,16.247 77.295,24.42 118.784,24.42 41.489,0 81.214,-8.259 119.12,-24.42 C 500.47,555.06 555.3,500.009 587.573,424.791 603.819,386.914 612,347.16 612,305.664 c 0,-41.488 -8.174,-80.907 -24.428,-118.783 z m -48.848,253.972 c -24.021,41.195 -56.929,73.876 -98.375,98.039 -41.195,24.021 -86.332,36.135 -134.845,36.135 -36.47,0 -71.27,-7.024 -104.4,-21.415 C 167.975,539.228 139.371,520.318 115.443,496.397 91.515,472.469 72.47,443.586 58.229,410.4 44.03,377.335 37.149,342.142 37.149,305.665 c 0,-48.52 11.921,-93.428 35.807,-134.509 23.971,-41.231 56.886,-73.947 98.039,-98.04 41.146,-24.092 85.99,-36.142 134.502,-36.142 48.52,0 93.649,12.121 134.845,36.142 41.446,24.164 74.283,56.879 98.375,98.039 24.092,41.153 36.135,85.99 36.135,134.509 0,48.521 -11.964,93.735 -36.128,135.189 z"
         id="path2-7" />
      <path
         style="fill:#ffffff"
         d="M 324.906,302.988 V 129.659 c 0,-10.372 -9.037,-18.738 -19.41,-18.738 -9.701,0 -18.403,8.366 -18.403,18.738 v 176.005 c 0,0.336 0.671,1.678 0.671,2.678 -0.671,6.024 1.007,11.043 5.019,15.062 L 392.836,423.45 c 6.695,6.695 19.073,6.695 25.763,0 7.694,-7.695 7.188,-18.86 0,-26.099 z"
         id="path4-5" />
    </g>
  </g>
</svg>
