<?xml version="1.0" encoding="UTF-8" standalone="no"?>
<svg
   xmlns:dc="http://purl.org/dc/elements/1.1/"
   xmlns:cc="http://creativecommons.org/ns#"
   xmlns:rdf="http://www.w3.org/1999/02/22-rdf-syntax-ns#"
   xmlns:svg="http://www.w3.org/2000/svg"
   xmlns="http://www.w3.org/2000/svg"
   xmlns:sodipodi="http://sodipodi.sourceforge.net/DTD/sodipodi-0.dtd"
   xmlns:inkscape="http://www.inkscape.org/namespaces/inkscape"
   inkscape:version="1.0 (4035a4fb49, 2020-05-01)"
   sodipodi:docname="inputTypeSunPercent.svg"
   id="svg21"
   version="1.1"
   viewBox="0 0 40 40"
   height="40pt"
   width="40pt">
  <metadata
     id="metadata27">
    <rdf:RDF>
      <cc:Work
         rdf:about="">
        <dc:format>image/svg+xml</dc:format>
        <dc:type
           rdf:resource="http://purl.org/dc/dcmitype/StillImage" />
        <dc:title></dc:title>
      </cc:Work>
    </rdf:RDF>
  </metadata>
  <defs
     id="defs25" />
  <sodipodi:namedview
     inkscape:current-layer="svg21"
     inkscape:window-maximized="1"
     inkscape:window-y="-8"
     inkscape:window-x="72"
     inkscape:cy="23.295149"
     inkscape:cx="29.925183"
     inkscape:zoom="18.9"
     showgrid="false"
     id="namedview23"
     inkscape:window-height="1177"
     inkscape:window-width="1840"
     inkscape:pageshadow="2"
     inkscape:pageopacity="0"
     guidetolerance="10"
     gridtolerance="10"
     objecttolerance="10"
     borderopacity="1"
     bordercolor="#666666"
     pagecolor="#ffffff" />
  <g
     id="surface1">
    <path
       id="path2"
       d="M 34.167969 5.882812 C 34.804688 6.519531 34.804688 7.554688 34.167969 8.191406 L 31.761719 10.597656 C 31.125 11.234375 30.089844 11.234375 29.453125 10.597656 L 29.40625 10.546875 C 28.765625 9.910156 28.765625 8.875 29.402344 8.238281 L 31.808594 5.832031 C 32.445312 5.195312 33.480469 5.195312 34.117188 5.832031 Z M 34.167969 5.882812 "
       style=" stroke:none;fill-rule:nonzero;fill:rgb(0%,0%,0%);fill-opacity:1;" />
    <path
       id="path4"
       d="M 20.035156 0 C 20.9375 0 21.667969 0.730469 21.667969 1.632812 L 21.667969 5.035156 C 21.667969 5.9375 20.9375 6.667969 20.035156 6.667969 L 19.964844 6.667969 C 19.0625 6.667969 18.332031 5.9375 18.332031 5.035156 L 18.332031 1.632812 C 18.332031 0.730469 19.0625 0 19.964844 0 Z M 20.035156 0 "
       style=" stroke:none;fill-rule:nonzero;fill:rgb(0%,0%,0%);fill-opacity:1;" />
    <path
       id="path6"
       d="M 10.570312 8.214844 C 11.222656 8.867188 11.222656 9.921875 10.570312 10.570312 C 9.921875 11.222656 8.867188 11.222656 8.214844 10.570312 L 5.859375 8.214844 C 5.207031 7.566406 5.207031 6.507812 5.859375 5.859375 C 6.507812 5.207031 7.5625 5.207031 8.214844 5.859375 Z M 10.570312 8.214844 "
       style=" stroke:none;fill-rule:nonzero;fill:rgb(0%,0%,0%);fill-opacity:1;" />
    <path
       id="path8"
       d="M 5 18.332031 C 5.921875 18.332031 6.667969 19.078125 6.667969 20 C 6.667969 20.921875 5.921875 21.667969 5 21.667969 L 1.667969 21.667969 C 0.746094 21.667969 0 20.921875 0 20 C 0 19.078125 0.746094 18.332031 1.667969 18.332031 Z M 5 18.332031 "
       style=" stroke:none;fill-rule:nonzero;fill:rgb(0%,0%,0%);fill-opacity:1;" />
    <path
       id="path10"
       d="M 10.597656 29.453125 C 11.234375 30.089844 11.234375 31.125 10.597656 31.761719 L 8.191406 34.167969 C 7.554688 34.804688 6.519531 34.804688 5.882812 34.167969 L 5.832031 34.117188 C 5.195312 33.480469 5.195312 32.445312 5.832031 31.808594 L 8.238281 29.402344 C 8.875 28.765625 9.910156 28.765625 10.546875 29.402344 Z M 10.597656 29.453125 "
       style=" stroke:none;fill-rule:nonzero;fill:rgb(0%,0%,0%);fill-opacity:1;" />
    <path
       id="path12"
       d="M 20.035156 33.332031 C 20.9375 33.332031 21.667969 34.0625 21.667969 34.964844 L 21.667969 38.367188 C 21.667969 39.269531 20.9375 40 20.035156 40 L 19.964844 40 C 19.0625 40 18.332031 39.269531 18.332031 38.367188 L 18.332031 34.964844 C 18.332031 34.0625 19.0625 33.332031 19.964844 33.332031 Z M 20.035156 33.332031 "
       style=" stroke:none;fill-rule:nonzero;fill:rgb(0%,0%,0%);fill-opacity:1;" />
    <path
       id="path14"
       d="M 34.167969 31.808594 C 34.804688 32.445312 34.804688 33.480469 34.167969 34.117188 L 34.117188 34.167969 C 33.480469 34.804688 32.445312 34.804688 31.808594 34.167969 L 29.402344 31.761719 C 28.765625 31.125 28.765625 30.089844 29.40625 29.453125 L 29.453125 29.40625 C 30.089844 28.765625 31.125 28.765625 31.761719 29.402344 Z M 34.167969 31.808594 "
       style=" stroke:none;fill-rule:nonzero;fill:rgb(0%,0%,0%);fill-opacity:1;" />
    <path
       id="path16"
       d="M 38.367188 18.332031 C 39.269531 18.332031 40 19.0625 40 19.964844 L 40 20.035156 C 40 20.9375 39.269531 21.667969 38.367188 21.667969 L 34.964844 21.667969 C 34.0625 21.667969 33.332031 20.9375 33.332031 20.035156 L 33.332031 19.964844 C 33.332031 19.0625 34.0625 18.332031 34.964844 18.332031 Z M 38.367188 18.332031 "
       style=" stroke:none;fill-rule:nonzero;fill:rgb(0%,0%,0%);fill-opacity:1;" />
    <path
       id="path18"
       d="M 10 20 C 10 25.523438 14.476562 30 20 30 C 25.523438 30 30 25.523438 30 20 C 30 14.476562 25.523438 10 20 10 C 14.476562 10 10 14.476562 10 20 Z M 26.667969 20 C 26.667969 23.683594 23.683594 26.667969 20 26.667969 C 16.316406 26.667969 13.332031 23.683594 13.332031 20 C 13.332031 16.316406 16.316406 13.332031 20 13.332031 C 23.683594 13.332031 26.667969 16.316406 26.667969 20 Z M 26.667969 20 "
       style=" stroke:none;fill-rule:nonzero;fill:rgb(0%,0%,0%);fill-opacity:1;" />
  </g>
  <text
     id="text37"
     y="23.412699"
     x="15.555557"
     style="font-style:normal;font-weight:normal;font-size:30px;line-height:1.25;font-family:sans-serif;letter-spacing:0px;word-spacing:0px;fill:#000000;fill-opacity:1;stroke:none;stroke-width:0.75"
     xml:space="preserve"><tspan
       style="font-style:normal;font-variant:normal;font-weight:normal;font-stretch:normal;font-size:11px;font-family:'Arial Rounded MT Bold';-inkscape-font-specification:'Arial Rounded MT Bold, ';stroke-width:0.75"
       y="23.412699"
       x="15.555557"
       id="tspan35"
       sodipodi:role="line">%</tspan></text>
</svg>
