<?xml version="1.0" encoding="UTF-8" standalone="no"?>
<svg
   xmlns:dc="http://purl.org/dc/elements/1.1/"
   xmlns:cc="http://creativecommons.org/ns#"
   xmlns:rdf="http://www.w3.org/1999/02/22-rdf-syntax-ns#"
   xmlns:svg="http://www.w3.org/2000/svg"
   xmlns="http://www.w3.org/2000/svg"
   xmlns:sodipodi="http://sodipodi.sourceforge.net/DTD/sodipodi-0.dtd"
   xmlns:inkscape="http://www.inkscape.org/namespaces/inkscape"
   inkscape:version="1.0 (4035a4fb49, 2020-05-01)"
   sodipodi:docname="inputTypeNumberPercent3.svg"
   id="svg4"
   version="1.1"
   viewBox="0, 0, 26, 36"
   height="36"
   width="26">
  <metadata
     id="metadata10">
    <rdf:RDF>
      <cc:Work
         rdf:about="">
        <dc:format>image/svg+xml</dc:format>
        <dc:type
           rdf:resource="http://purl.org/dc/dcmitype/StillImage" />
        <dc:title></dc:title>
      </cc:Work>
    </rdf:RDF>
  </metadata>
  <defs
     id="defs8" />
  <sodipodi:namedview
     inkscape:current-layer="svg4"
     inkscape:window-maximized="1"
     inkscape:window-y="-8"
     inkscape:window-x="72"
     inkscape:cy="13.881788"
     inkscape:cx="12.993694"
     inkscape:zoom="28"
     showgrid="false"
     id="namedview6"
     inkscape:window-height="1177"
     inkscape:window-width="1840"
     inkscape:pageshadow="2"
     inkscape:pageopacity="0"
     guidetolerance="10"
     gridtolerance="10"
     objecttolerance="10"
     borderopacity="1"
     bordercolor="#666666"
     pagecolor="#ffffff" />
  <g
     id="g19" />
  <g
     id="g49">
    <path
       id="path2"
       fill="#444"
       d="M14.16 27.38l1.555-.144c.132.731.383 1.261.755 1.591.371.33.848.494 1.429.494.497 0 .931-.114 1.303-.341.377-.228.686-.53.926-.908.24-.383.44-.899.602-1.546a8.122 8.122 0 0 0 .233-2.3 3.732 3.732 0 0 1-1.33 1.258 3.605 3.605 0 0 1-1.815.476c-1.09 0-2.013-.395-2.768-1.186s-1.133-1.834-1.133-3.128c0-1.336.393-2.411 1.178-3.226.79-.815 1.78-1.223 2.966-1.223.856 0 1.638.231 2.345.692.713.462 1.253 1.12 1.618 1.978.372.85.557 2.085.557 3.702 0 1.684-.182 3.026-.548 4.027-.365.994-.91 1.752-1.636 2.274-.719.52-1.563.781-2.534.781-1.03 0-1.872-.284-2.525-.853-.654-.576-1.046-1.381-1.178-2.418zm6.624-5.815c0-.928-.249-1.666-.746-2.21-.492-.546-1.085-.819-1.78-.819-.719 0-1.345.294-1.878.881s-.8 1.348-.8 2.283c0 .839.252 1.522.755 2.05.51.52 1.135.781 1.878.781.75 0 1.363-.26 1.843-.782.485-.527.728-1.255.728-2.184zM4.858 10.466c0-1.558.158-2.81.476-3.757.324-.952.8-1.686 1.429-2.201.635-.516 1.432-.773 2.39-.773.708 0 1.328.143 1.861.431.533.282.974.692 1.321 1.231.348.534.62 1.187.818 1.96.198.767.297 1.803.297 3.11 0 1.545-.16 2.794-.477 3.747-.317.947-.794 1.68-1.429 2.202-.629.515-1.426.773-2.39.773-1.27 0-2.268-.456-2.993-1.366-.869-1.097-1.303-2.882-1.303-5.357zm1.662 0c0 2.163.252 3.604.755 4.323.51.713 1.136 1.07 1.879 1.07.743 0 1.366-.36 1.87-1.079.508-.719.763-2.157.763-4.314 0-2.169-.255-3.61-.764-4.323-.503-.713-1.132-1.07-1.887-1.07-.743 0-1.336.315-1.78.944-.557.803-.836 2.286-.836 4.45z" />
    <path
       d="m 16.97579,5.4330652 q 0,0.9316234 -0.395108,1.3849581 -0.390949,0.4533346 -1.131257,0.4533346 -0.756944,0 -1.143734,-0.4533346 -0.38679,-0.4533347 -0.38679,-1.3807991 0,-0.9316234 0.395108,-1.3849581 0.395108,-0.4533346 1.135416,-0.4533346 0.752785,0 1.139575,0.4574937 0.38679,0.4574936 0.38679,1.37664 z M 19.849682,3.7153844 16.605636,9.908185 h -0.68624 l 3.244046,-6.1928006 z m 1.996336,4.4751199 q 0,0.9316234 -0.395108,1.384958 -0.395108,0.4533347 -1.135416,0.4533347 -0.752785,0 -1.139575,-0.4574937 -0.38679,-0.4574937 -0.38679,-1.37664 0,-0.9316235 0.390949,-1.3849581 0.395108,-0.4533346 1.135416,-0.4533346 0.756944,0 1.143734,0.4533346 0.38679,0.4533346 0.38679,1.3807991 z M 16.235482,5.4330652 q 0,-0.7153538 -0.187156,-0.998168 -0.182998,-0.2828143 -0.598901,-0.2828143 -0.424221,0 -0.607219,0.2828143 -0.182997,0.2828142 -0.182997,1.002327 0,0.7195128 0.182997,1.002327 0.182998,0.2786553 0.607219,0.2786553 0.415903,0 0.598901,-0.2786553 0.187156,-0.2828142 0.187156,-1.006486 z m 4.870228,2.7574391 q 0,-0.7153538 -0.187156,-0.998168 -0.182998,-0.2828143 -0.598901,-0.2828143 -0.424221,0 -0.607219,0.2828143 -0.182997,0.2828142 -0.182997,1.002327 0,0.7195127 0.182997,1.002327 0.182998,0.2786552 0.607219,0.2786552 0.415903,0 0.598901,-0.2786552 0.187156,-0.2828143 0.187156,-1.006486 z"
       style="font-size:8.5177px;stroke-width:0.798532"
       id="path41" />
  </g>
</svg>
