<?xml version="1.0" encoding="UTF-8" standalone="no"?>
<svg
   xmlns:dc="http://purl.org/dc/elements/1.1/"
   xmlns:cc="http://creativecommons.org/ns#"
   xmlns:rdf="http://www.w3.org/1999/02/22-rdf-syntax-ns#"
   xmlns:svg="http://www.w3.org/2000/svg"
   xmlns="http://www.w3.org/2000/svg"
   xmlns:sodipodi="http://sodipodi.sourceforge.net/DTD/sodipodi-0.dtd"
   xmlns:inkscape="http://www.inkscape.org/namespaces/inkscape"
   inkscape:version="1.0 (4035a4fb49, 2020-05-01)"
   sodipodi:docname="inputTypePayloadByTopic.svg"
   id="svg4"
   version="1.1"
   viewBox="0 0 24 24">
  <metadata
     id="metadata10">
    <rdf:RDF>
      <cc:Work
         rdf:about="">
        <dc:format>image/svg+xml</dc:format>
        <dc:type
           rdf:resource="http://purl.org/dc/dcmitype/StillImage" />
        <dc:title></dc:title>
      </cc:Work>
    </rdf:RDF>
  </metadata>
  <defs
     id="defs8" />
  <sodipodi:namedview
     inkscape:current-layer="svg4"
     inkscape:window-maximized="1"
     inkscape:window-y="-8"
     inkscape:window-x="72"
     inkscape:cy="5.3101504"
     inkscape:cx="21.815206"
     inkscape:zoom="14.849242"
     showgrid="false"
     id="namedview6"
     inkscape:window-height="1177"
     inkscape:window-width="1840"
     inkscape:pageshadow="2"
     inkscape:pageopacity="0"
     guidetolerance="10"
     gridtolerance="10"
     objecttolerance="10"
     borderopacity="1"
     bordercolor="#666666"
     pagecolor="#ffffff" />
  <path
     id="path2"
     d="M21.12,10.71,12.71,2.29A1,1,0,0,0,12,2H3A1,1,0,0,0,2,3v9a1,1,0,0,0,.29.71l8.42,8.41a3,3,0,0,0,4.24,0L21.12,15a3,3,0,0,0,0-4.24Zm-1.41,2.82h0l-6.18,6.17a1,1,0,0,1-1.41,0L4,11.59V4h7.59l8.12,8.12a1,1,0,0,1,.29.71A1,1,0,0,1,19.71,13.53Z" />
  <text
     transform="rotate(45)"
     id="text14"
     y="3.9882534"
     x="12.7092"
     style="font-style:normal;font-weight:normal;font-size:40px;line-height:1.25;font-family:sans-serif;letter-spacing:0px;word-spacing:0px;fill:#000000;fill-opacity:1;stroke:none"
     xml:space="preserve"><tspan
       style="font-style:normal;font-variant:normal;font-weight:normal;font-stretch:normal;font-size:10.6667px;font-family:'Arial Rounded MT Bold';-inkscape-font-specification:'Arial Rounded MT Bold, '"
       y="3.9882534"
       x="12.7092"
       id="tspan12"
       sodipodi:role="line">T</tspan></text>
</svg>
