<?xml version="1.0" encoding="UTF-8" standalone="no"?>
<svg
   xmlns:dc="http://purl.org/dc/elements/1.1/"
   xmlns:cc="http://creativecommons.org/ns#"
   xmlns:rdf="http://www.w3.org/1999/02/22-rdf-syntax-ns#"
   xmlns:svg="http://www.w3.org/2000/svg"
   xmlns="http://www.w3.org/2000/svg"
   xmlns:sodipodi="http://sodipodi.sourceforge.net/DTD/sodipodi-0.dtd"
   xmlns:inkscape="http://www.inkscape.org/namespaces/inkscape"
   inkscape:version="1.0 (4035a4fb49, 2020-05-01)"
   sodipodi:docname="inputTypeRandomNumber.svg"
   xml:space="preserve"
   style="enable-background:new 0 0 512 512;"
   viewBox="0 0 512 512"
   y="0px"
   x="0px"
   id="Layer_1"
   version="1.1"><metadata
   id="metadata55"><rdf:RDF><cc:Work
       rdf:about=""><dc:format>image/svg+xml</dc:format><dc:type
         rdf:resource="http://purl.org/dc/dcmitype/StillImage" /><dc:title></dc:title></cc:Work></rdf:RDF></metadata><defs
   id="defs53" /><sodipodi:namedview
   inkscape:current-layer="Layer_1"
   inkscape:window-maximized="1"
   inkscape:window-y="-8"
   inkscape:window-x="72"
   inkscape:cy="125.03308"
   inkscape:cx="167.09715"
   inkscape:zoom="0.984375"
   showgrid="false"
   id="namedview51"
   inkscape:window-height="1177"
   inkscape:window-width="1840"
   inkscape:pageshadow="2"
   inkscape:pageopacity="0"
   guidetolerance="10"
   gridtolerance="10"
   objecttolerance="10"
   borderopacity="1"
   bordercolor="#666666"
   pagecolor="#ffffff" />


<g
   transform="matrix(1,0,0,0.6723089,0,5.8034094)"
   id="g66"><g
     id="g6">
	<g
   id="g4">
		<path
   d="M 512,387.67 405.406,281.024 v 84.694 h -10.435 c -48.766,0 -80.203,-28.752 -108.698,-68.925 -7.856,12.825 -16.14,26.159 -25.113,39.387 32.329,41.052 73.081,73.424 133.81,73.424 h 10.435 v 84.686 z"
   id="path2" />
	</g>
</g><g
     id="g12">
	<g
   id="g10">
		<path
   d="M 512,124.355 405.406,17.71 v 84.695 h -10.435 c -92.763,0 -138.917,75.524 -179.637,142.158 -39.73,65.009 -74.04,121.155 -142.191,121.155 H 0 v 43.886 h 73.143 c 92.763,0 138.917,-75.524 179.637,-142.158 39.73,-65.011 74.04,-121.157 142.191,-121.157 h 10.435 v 84.686 z"
   id="path8" />
	</g>
</g><g
     id="g18">
	<g
   id="g16">
		<path
   d="M 73.143,102.404 H 0 v 43.886 h 73.143 c 48.766,0 80.203,28.752 108.698,68.925 7.856,-12.825 16.14,-26.159 25.113,-39.387 -32.33,-41.054 -73.082,-73.424 -133.811,-73.424 z"
   id="path14" />
	</g>
</g></g>
<g
   id="g20">
</g>
<g
   id="g22">
</g>
<g
   id="g24">
</g>
<g
   id="g26">
</g>
<g
   id="g28">
</g>
<g
   id="g30">
</g>
<g
   id="g32">
</g>
<g
   id="g34">
</g>
<g
   id="g36">
</g>
<g
   id="g38">
</g>
<g
   id="g40">
</g>
<g
   id="g42">
</g>
<g
   id="g44">
</g>
<g
   id="g46">
</g>
<g
   id="g48">
</g>
<text
   id="text70"
   y="496.19324"
   x="18.755602"
   style="font-style:normal;font-weight:normal;font-size:197.188px;line-height:1.25;font-family:sans-serif;letter-spacing:0px;word-spacing:0px;fill:#000000;fill-opacity:1;stroke:none;stroke-width:4.9297"
   xml:space="preserve"><tspan
     style="font-style:normal;font-variant:normal;font-weight:normal;font-stretch:normal;font-family:'Arial Rounded MT Bold';-inkscape-font-specification:'Arial Rounded MT Bold, ';stroke-width:4.9297"
     y="496.19324"
     x="18.755602"
     id="tspan68"
     sodipodi:role="line">2593</tspan></text></svg>
