<?xml version="1.0" encoding="UTF-8"?>
<svg xmlns="http://www.w3.org/2000/svg" xmlns:xlink="http://www.w3.org/1999/xlink" width="40pt" height="40pt" viewBox="0 0 40 40" version="1.1">
<g id="surface1">
<path style=" stroke:none;fill-rule:nonzero;fill:rgb(0%,0%,0%);fill-opacity:1;" d="M 20 11.058594 C 15.070312 11.058594 11.058594 15.070312 11.058594 20 C 11.058594 24.929688 15.070312 28.941406 20 28.941406 C 24.929688 28.941406 28.941406 24.929688 28.941406 20 C 28.941406 15.070312 24.929688 11.058594 20 11.058594 Z M 20 27.644531 C 15.785156 27.644531 12.355469 24.214844 12.355469 20 C 12.355469 15.785156 15.785156 12.355469 20 12.355469 C 24.214844 12.355469 27.644531 15.785156 27.644531 20 C 27.644531 24.214844 24.214844 27.644531 20 27.644531 Z M 20 27.644531 "/>
<path style=" stroke:none;fill-rule:nonzero;fill:rgb(0%,0%,0%);fill-opacity:1;" d="M 20 9.589844 C 20.359375 9.589844 20.648438 9.300781 20.648438 8.941406 L 20.648438 0.648438 C 20.648438 0.289062 20.359375 0 20 0 C 19.640625 0 19.351562 0.289062 19.351562 0.648438 L 19.351562 8.941406 C 19.351562 9.300781 19.640625 9.589844 20 9.589844 Z M 20 9.589844 "/>
<path style=" stroke:none;fill-rule:nonzero;fill:rgb(0%,0%,0%);fill-opacity:1;" d="M 20 30.410156 C 19.640625 30.410156 19.351562 30.699219 19.351562 31.058594 L 19.351562 39.351562 C 19.351562 39.710938 19.640625 40 20 40 C 20.359375 40 20.648438 39.710938 20.648438 39.351562 L 20.648438 31.058594 C 20.648438 30.699219 20.359375 30.410156 20 30.410156 Z M 20 30.410156 "/>
<path style=" stroke:none;fill-rule:nonzero;fill:rgb(0%,0%,0%);fill-opacity:1;" d="M 9.589844 20 C 9.589844 19.640625 9.300781 19.351562 8.941406 19.351562 L 0.648438 19.351562 C 0.289062 19.351562 0 19.640625 0 20 C 0 20.359375 0.289062 20.648438 0.648438 20.648438 L 8.941406 20.648438 C 9.300781 20.648438 9.589844 20.359375 9.589844 20 Z M 9.589844 20 "/>
<path style=" stroke:none;fill-rule:nonzero;fill:rgb(0%,0%,0%);fill-opacity:1;" d="M 39.351562 19.351562 L 31.058594 19.351562 C 30.699219 19.351562 30.410156 19.640625 30.410156 20 C 30.410156 20.359375 30.699219 20.648438 31.058594 20.648438 L 39.351562 20.648438 C 39.710938 20.648438 40 20.359375 40 20 C 40 19.640625 39.710938 19.351562 39.351562 19.351562 Z M 39.351562 19.351562 "/>
<path style=" stroke:none;fill-rule:nonzero;fill:rgb(0%,0%,0%);fill-opacity:1;" d="M 14.792969 29.015625 C 14.484375 28.835938 14.089844 28.941406 13.910156 29.253906 L 12.527344 31.648438 C 12.347656 31.957031 12.453125 32.351562 12.765625 32.53125 C 12.867188 32.589844 12.976562 32.617188 13.089844 32.617188 C 13.3125 32.617188 13.53125 32.503906 13.648438 32.296875 L 15.03125 29.902344 C 15.210938 29.589844 15.105469 29.195312 14.792969 29.015625 Z M 14.792969 29.015625 "/>
<path style=" stroke:none;fill-rule:nonzero;fill:rgb(0%,0%,0%);fill-opacity:1;" d="M 12.03125 33.804688 C 11.71875 33.625 11.324219 33.730469 11.144531 34.042969 L 10.453125 35.238281 C 10.273438 35.546875 10.382812 35.945312 10.691406 36.125 C 10.792969 36.183594 10.90625 36.210938 11.015625 36.210938 C 11.238281 36.210938 11.457031 36.09375 11.578125 35.886719 L 12.265625 34.6875 C 12.445312 34.378906 12.339844 33.984375 12.03125 33.804688 Z M 12.03125 33.804688 "/>
<path style=" stroke:none;fill-rule:nonzero;fill:rgb(0%,0%,0%);fill-opacity:1;" d="M 25.207031 10.984375 C 25.308594 11.042969 25.417969 11.070312 25.527344 11.070312 C 25.753906 11.070312 25.96875 10.953125 26.089844 10.746094 L 27.472656 8.351562 C 27.652344 8.042969 27.546875 7.648438 27.234375 7.46875 C 26.925781 7.289062 26.527344 7.394531 26.351562 7.703125 L 24.96875 10.097656 C 24.789062 10.410156 24.894531 10.804688 25.207031 10.984375 Z M 25.207031 10.984375 "/>
<path style=" stroke:none;fill-rule:nonzero;fill:rgb(0%,0%,0%);fill-opacity:1;" d="M 27.96875 6.195312 C 28.070312 6.253906 28.183594 6.28125 28.292969 6.28125 C 28.515625 6.28125 28.734375 6.167969 28.855469 5.957031 L 29.546875 4.761719 C 29.726562 4.453125 29.617188 4.054688 29.308594 3.875 C 29 3.699219 28.601562 3.804688 28.421875 4.113281 L 27.734375 5.3125 C 27.554688 5.621094 27.660156 6.015625 27.96875 6.195312 Z M 27.96875 6.195312 "/>
<path style=" stroke:none;fill-rule:nonzero;fill:rgb(0%,0%,0%);fill-opacity:1;" d="M 26.089844 29.253906 C 25.910156 28.941406 25.515625 28.835938 25.207031 29.015625 C 24.894531 29.195312 24.789062 29.589844 24.96875 29.902344 L 26.351562 32.296875 C 26.46875 32.503906 26.6875 32.617188 26.910156 32.617188 C 27.023438 32.617188 27.132812 32.589844 27.234375 32.53125 C 27.546875 32.351562 27.652344 31.957031 27.472656 31.648438 Z M 26.089844 29.253906 "/>
<path style=" stroke:none;fill-rule:nonzero;fill:rgb(0%,0%,0%);fill-opacity:1;" d="M 28.855469 34.042969 C 28.675781 33.730469 28.28125 33.625 27.96875 33.804688 C 27.660156 33.984375 27.554688 34.378906 27.734375 34.6875 L 28.421875 35.886719 C 28.542969 36.09375 28.761719 36.210938 28.984375 36.210938 C 29.09375 36.210938 29.207031 36.183594 29.308594 36.125 C 29.617188 35.945312 29.726562 35.546875 29.546875 35.238281 Z M 28.855469 34.042969 "/>
<path style=" stroke:none;fill-rule:nonzero;fill:rgb(0%,0%,0%);fill-opacity:1;" d="M 13.910156 10.746094 C 14.03125 10.953125 14.246094 11.070312 14.472656 11.070312 C 14.582031 11.070312 14.691406 11.042969 14.792969 10.984375 C 15.105469 10.804688 15.210938 10.410156 15.03125 10.097656 L 13.648438 7.703125 C 13.472656 7.394531 13.074219 7.289062 12.765625 7.46875 C 12.453125 7.648438 12.347656 8.042969 12.527344 8.351562 Z M 13.910156 10.746094 "/>
<path style=" stroke:none;fill-rule:nonzero;fill:rgb(0%,0%,0%);fill-opacity:1;" d="M 11.144531 5.957031 C 11.265625 6.167969 11.484375 6.28125 11.707031 6.28125 C 11.816406 6.28125 11.929688 6.253906 12.03125 6.195312 C 12.339844 6.015625 12.445312 5.621094 12.265625 5.3125 L 11.578125 4.113281 C 11.398438 3.804688 11 3.699219 10.691406 3.875 C 10.382812 4.054688 10.273438 4.453125 10.453125 4.761719 Z M 11.144531 5.957031 "/>
<path style=" stroke:none;fill-rule:nonzero;fill:rgb(0%,0%,0%);fill-opacity:1;" d="M 32.296875 26.351562 L 29.902344 24.96875 C 29.589844 24.789062 29.195312 24.894531 29.015625 25.207031 C 28.835938 25.515625 28.941406 25.910156 29.253906 26.089844 L 31.648438 27.472656 C 31.75 27.53125 31.859375 27.558594 31.96875 27.558594 C 32.195312 27.558594 32.410156 27.441406 32.53125 27.234375 C 32.710938 26.925781 32.605469 26.527344 32.296875 26.351562 Z M 32.296875 26.351562 "/>
<path style=" stroke:none;fill-rule:nonzero;fill:rgb(0%,0%,0%);fill-opacity:1;" d="M 35.886719 28.421875 L 34.6875 27.734375 C 34.378906 27.554688 33.984375 27.660156 33.804688 27.96875 C 33.625 28.28125 33.730469 28.675781 34.042969 28.855469 L 35.238281 29.546875 C 35.339844 29.605469 35.453125 29.632812 35.5625 29.632812 C 35.785156 29.632812 36.003906 29.515625 36.125 29.308594 C 36.300781 29 36.195312 28.601562 35.886719 28.421875 Z M 35.886719 28.421875 "/>
<path style=" stroke:none;fill-rule:nonzero;fill:rgb(0%,0%,0%);fill-opacity:1;" d="M 7.703125 13.648438 L 10.097656 15.03125 C 10.203125 15.089844 10.3125 15.117188 10.421875 15.117188 C 10.648438 15.117188 10.863281 15.003906 10.984375 14.792969 C 11.164062 14.484375 11.058594 14.089844 10.746094 13.910156 L 8.351562 12.527344 C 8.042969 12.347656 7.648438 12.453125 7.46875 12.765625 C 7.289062 13.074219 7.394531 13.472656 7.703125 13.648438 Z M 7.703125 13.648438 "/>
<path style=" stroke:none;fill-rule:nonzero;fill:rgb(0%,0%,0%);fill-opacity:1;" d="M 4.113281 11.578125 L 5.3125 12.265625 C 5.414062 12.328125 5.523438 12.355469 5.632812 12.355469 C 5.859375 12.355469 6.074219 12.238281 6.195312 12.03125 C 6.375 11.71875 6.269531 11.324219 5.957031 11.144531 L 4.761719 10.453125 C 4.453125 10.273438 4.054688 10.382812 3.875 10.691406 C 3.699219 11 3.804688 11.398438 4.113281 11.578125 Z M 4.113281 11.578125 "/>
<path style=" stroke:none;fill-rule:nonzero;fill:rgb(0%,0%,0%);fill-opacity:1;" d="M 29.015625 14.792969 C 29.136719 15.003906 29.351562 15.117188 29.578125 15.117188 C 29.6875 15.117188 29.796875 15.089844 29.902344 15.03125 L 32.296875 13.648438 C 32.605469 13.472656 32.710938 13.074219 32.53125 12.765625 C 32.351562 12.453125 31.957031 12.347656 31.648438 12.527344 L 29.253906 13.910156 C 28.941406 14.089844 28.835938 14.484375 29.015625 14.792969 Z M 29.015625 14.792969 "/>
<path style=" stroke:none;fill-rule:nonzero;fill:rgb(0%,0%,0%);fill-opacity:1;" d="M 34.367188 12.355469 C 34.476562 12.355469 34.585938 12.328125 34.6875 12.265625 L 35.886719 11.578125 C 36.195312 11.398438 36.300781 11 36.125 10.691406 C 35.945312 10.382812 35.546875 10.273438 35.238281 10.453125 L 34.042969 11.144531 C 33.730469 11.324219 33.625 11.71875 33.804688 12.03125 C 33.925781 12.238281 34.140625 12.355469 34.367188 12.355469 Z M 34.367188 12.355469 "/>
<path style=" stroke:none;fill-rule:nonzero;fill:rgb(0%,0%,0%);fill-opacity:1;" d="M 10.984375 25.207031 C 10.804688 24.894531 10.410156 24.789062 10.097656 24.96875 L 7.703125 26.351562 C 7.394531 26.527344 7.289062 26.925781 7.46875 27.234375 C 7.589844 27.441406 7.804688 27.558594 8.03125 27.558594 C 8.140625 27.558594 8.25 27.53125 8.351562 27.472656 L 10.746094 26.089844 C 11.058594 25.910156 11.164062 25.515625 10.984375 25.207031 Z M 10.984375 25.207031 "/>
<path style=" stroke:none;fill-rule:nonzero;fill:rgb(0%,0%,0%);fill-opacity:1;" d="M 5.3125 27.734375 L 4.113281 28.421875 C 3.804688 28.601562 3.699219 29 3.875 29.308594 C 3.996094 29.515625 4.214844 29.632812 4.4375 29.632812 C 4.546875 29.632812 4.660156 29.605469 4.761719 29.546875 L 5.957031 28.855469 C 6.269531 28.675781 6.375 28.28125 6.195312 27.96875 C 6.015625 27.660156 5.621094 27.554688 5.3125 27.734375 Z M 5.3125 27.734375 "/>
</g>
</svg>
