<?xml version="1.0" encoding="UTF-8"?>
<svg xmlns="http://www.w3.org/2000/svg" xmlns:xlink="http://www.w3.org/1999/xlink" width="40pt" height="40pt" viewBox="0 0 40 40" version="1.1">
<g id="surface1">
<path style=" stroke:none;fill-rule:nonzero;fill:rgb(26.666667%,26.666667%,26.666667%);fill-opacity:1;" d="M 25 7.5 L 22.5 7.5 L 22.5 2.5 L 17.5 2.5 L 17.5 7.5 L 15 7.5 L 20 15 Z M 25 7.5 "/>
<path style=" stroke:none;fill-rule:nonzero;fill:rgb(26.666667%,26.666667%,26.666667%);fill-opacity:1;" d="M 35 32.5 L 31.050781 29.550781 L 33 25 L 28 24.425781 L 27.5 19.5 L 22.949219 21.449219 L 20 17.5 L 17.050781 21.449219 L 12.5 19.5 L 11.925781 24.5 L 7 25 L 8.949219 29.550781 L 5 32.5 L 0 32.5 L 0 35 L 40 35 L 40 32.5 Z M 10 32.5 C 10.183594 27.0625 14.542969 22.695312 19.984375 22.5 C 25.425781 22.675781 29.804688 27.039062 30 32.484375 Z M 10 32.5 "/>
</g>
</svg>
