<?xml version="1.0" encoding="UTF-8" standalone="no"?>
<svg
   xmlns:dc="http://purl.org/dc/elements/1.1/"
   xmlns:cc="http://creativecommons.org/ns#"
   xmlns:rdf="http://www.w3.org/1999/02/22-rdf-syntax-ns#"
   xmlns:svg="http://www.w3.org/2000/svg"
   xmlns="http://www.w3.org/2000/svg"
   xmlns:sodipodi="http://sodipodi.sourceforge.net/DTD/sodipodi-0.dtd"
   xmlns:inkscape="http://www.inkscape.org/namespaces/inkscape"
   inkscape:version="1.0 (4035a4fb49, 2020-05-01)"
   sodipodi:docname="time-comp-white.svg"
   id="svg15"
   version="1.1"
   viewBox="0 0 40 40"
   height="40pt"
   width="40pt">
  <metadata
     id="metadata21">
    <rdf:RDF>
      <cc:Work
         rdf:about="">
        <dc:format>image/svg+xml</dc:format>
        <dc:type
           rdf:resource="http://purl.org/dc/dcmitype/StillImage" />
        <dc:title></dc:title>
      </cc:Work>
    </rdf:RDF>
  </metadata>
  <defs
     id="defs19" />
  <sodipodi:namedview
     inkscape:current-layer="svg15"
     inkscape:window-maximized="1"
     inkscape:window-y="-8"
     inkscape:window-x="72"
     inkscape:cy="26.666667"
     inkscape:cx="26.666667"
     inkscape:zoom="18.9"
     showgrid="false"
     id="namedview17"
     inkscape:window-height="1177"
     inkscape:window-width="1840"
     inkscape:pageshadow="2"
     inkscape:pageopacity="0"
     guidetolerance="10"
     gridtolerance="10"
     objecttolerance="10"
     borderopacity="1"
     bordercolor="#666666"
     pagecolor="#ffffff" />
  <g
     style="fill:#ffffff"
     id="surface1">
    <path
       id="path2"
       d="M 19.953125 3.328125 C 10.765625 3.328125 3.328125 10.785156 3.328125 19.972656 C 3.328125 29.15625 10.765625 36.613281 19.953125 36.613281 C 29.15625 36.613281 36.613281 29.15625 36.613281 19.972656 C 36.613281 10.785156 29.15625 3.328125 19.953125 3.328125 Z M 19.972656 33.285156 C 12.613281 33.285156 6.65625 27.328125 6.65625 19.972656 C 6.65625 12.613281 12.613281 6.65625 19.972656 6.65625 C 27.328125 6.65625 33.285156 12.613281 33.285156 19.972656 C 33.285156 27.328125 27.328125 33.285156 19.972656 33.285156 Z M 19.972656 33.285156 "
       style="stroke:none;fill-rule:nonzero;fill:#ffffff;fill-opacity:1" />
    <path
       id="path4"
       d="M 20.804688 11.648438 L 18.304688 11.648438 L 18.304688 21.636719 L 27.042969 26.878906 L 28.292969 24.828125 L 20.804688 20.386719 Z M 20.804688 11.648438 "
       style="stroke:none;fill-rule:nonzero;fill:#ffffff;fill-opacity:1" />
    <path
       id="path6"
       transform="matrix(0.116959,0,0,0.116959,0,0)"
       d="M 214.451367 235.425586 C 201.225586 249.45293 190.003711 254.262305 176.77793 255.531445 "
       style="fill:#ffffff;stroke-width:12;stroke-linecap:butt;stroke-linejoin:miter;stroke:rgb(18%, 32%, 64%);stroke-opacity:1;stroke-miterlimit:10" />
    <path
       id="path8"
       d="M 21.269531 27.738281 L 17.652344 29.867188 L 21.304688 31.9375 Z M 21.269531 27.738281 "
       style="stroke:none;fill-rule:nonzero;fill:#ffffff;fill-opacity:1" />
    <path
       id="path10"
       transform="matrix(0.116959,0,0,0.116959,0,0)"
       d="M 241.904883 192.909375 C 251.924414 176.443945 253.594336 164.353711 251.289844 151.261523 "
       style="fill:#ffffff;stroke-width:12;stroke-linecap:butt;stroke-linejoin:miter;stroke:rgb(18%, 32%, 64%);stroke-opacity:1;stroke-miterlimit:10" />
    <path
       id="path12"
       d="M 31.515625 17.761719 L 28.550781 14.785156 L 27.457031 18.839844 Z M 31.515625 17.761719 "
       style="stroke:none;fill-rule:nonzero;fill:#ffffff;fill-opacity:1" />
  </g>
</svg>
