<?xml version="1.0" encoding="UTF-8"?>
<svg xmlns="http://www.w3.org/2000/svg" xmlns:xlink="http://www.w3.org/1999/xlink" width="28pt" height="28pt" viewBox="0 0 28 28" version="1.1">
<g id="surface1">
<path style=" stroke:none;fill-rule:nonzero;fill:rgb(0%,0%,0%);fill-opacity:1;" d="M 4.304688 0.40625 C 4.027344 0.578125 3.886719 0.910156 3.886719 1.386719 L 3.886719 1.785156 L 3.066406 1.785156 C 2.519531 1.785156 2.179688 1.820312 2.035156 1.878906 C 1.75 1.996094 1.472656 2.285156 1.3125 2.636719 L 1.171875 2.929688 L 1.171875 11.425781 C 1.171875 19.070312 1.1875 19.945312 1.277344 20.148438 C 1.441406 20.5 1.703125 20.773438 2.042969 20.945312 L 2.347656 21.09375 L 5.714844 21.09375 C 8.570312 21.09375 9.078125 21.082031 9.058594 21.003906 C 9.046875 20.953125 9.019531 20.625 9 20.273438 L 8.960938 19.625 L 5.820312 19.613281 L 2.675781 19.59375 L 2.675781 7.113281 L 10.375 7.09375 L 18.0625 7.078125 L 18.0625 9.824219 L 18.671875 9.824219 C 19 9.824219 19.339844 9.84375 19.421875 9.863281 L 19.566406 9.902344 L 19.566406 6.550781 C 19.566406 4.570312 19.535156 3.074219 19.5 2.910156 C 19.410156 2.519531 19.136719 2.132812 18.816406 1.945312 C 18.5625 1.800781 18.476562 1.785156 17.683594 1.785156 L 16.824219 1.785156 L 16.824219 1.34375 C 16.824219 0.839844 16.6875 0.546875 16.371094 0.382812 C 15.726562 0.0546875 15.128906 0.546875 15.125 1.40625 L 15.125 1.785156 L 5.585938 1.785156 L 5.585938 1.394531 C 5.585938 1.179688 5.542969 0.898438 5.492188 0.773438 C 5.308594 0.335938 4.722656 0.152344 4.304688 0.40625 Z M 4.007812 4.648438 C 4.121094 4.863281 4.46875 5.054688 4.734375 5.054688 C 5.25 5.054688 5.585938 4.640625 5.585938 3.996094 L 5.589844 3.648438 L 5.804688 3.890625 C 6.316406 4.472656 6.28125 5.21875 5.722656 5.777344 C 5.140625 6.359375 4.382812 6.378906 3.78125 5.824219 C 3.226562 5.316406 3.167969 4.484375 3.644531 3.910156 L 3.851562 3.65625 L 3.890625 4.074219 C 3.910156 4.308594 3.964844 4.5625 4.007812 4.648438 Z M 15.292969 4.6875 C 15.4375 4.910156 15.710938 5.054688 15.988281 5.054688 C 16.503906 5.054688 16.824219 4.667969 16.824219 4.046875 L 16.828125 3.648438 L 17.050781 3.890625 C 17.796875 4.695312 17.28125 6.054688 16.164062 6.203125 C 14.875 6.378906 14.066406 4.792969 14.953125 3.824219 L 15.089844 3.667969 L 15.136719 4.09375 C 15.15625 4.328125 15.230469 4.597656 15.292969 4.6875 Z M 15.292969 4.6875 "/>
<path style=" stroke:none;fill-rule:nonzero;fill:rgb(0%,0%,0%);fill-opacity:1;" d="M 6.5 9.007812 L 6.5 9.953125 L 8.457031 9.953125 L 8.457031 8.058594 L 6.5 8.058594 Z M 6.5 9.007812 "/>
<path style=" stroke:none;fill-rule:nonzero;fill:rgb(0%,0%,0%);fill-opacity:1;" d="M 9.375 9.007812 L 9.375 9.953125 L 11.335938 9.953125 L 11.335938 8.058594 L 9.375 8.058594 Z M 9.375 9.007812 "/>
<path style=" stroke:none;fill-rule:nonzero;fill:rgb(0%,0%,0%);fill-opacity:1;" d="M 12.3125 9.007812 L 12.3125 9.953125 L 14.210938 9.953125 L 14.210938 8.058594 L 12.3125 8.058594 Z M 12.3125 9.007812 "/>
<path style=" stroke:none;fill-rule:nonzero;fill:rgb(0%,0%,0%);fill-opacity:1;" d="M 15.1875 9.007812 L 15.1875 9.953125 L 17.085938 9.953125 L 17.085938 8.058594 L 15.1875 8.058594 Z M 15.1875 9.007812 "/>
<path style=" stroke:none;fill-rule:nonzero;fill:rgb(0%,0%,0%);fill-opacity:1;" d="M 3.625 11.914062 L 3.625 12.902344 L 4.589844 12.882812 L 5.550781 12.863281 L 5.550781 10.96875 L 4.589844 10.949219 L 3.625 10.929688 Z M 3.625 11.914062 "/>
<path style=" stroke:none;fill-rule:nonzero;fill:rgb(0%,0%,0%);fill-opacity:1;" d="M 6.511719 11.894531 L 6.53125 12.863281 L 8.425781 12.863281 L 8.445312 11.894531 L 8.464844 10.933594 L 6.492188 10.933594 Z M 6.511719 11.894531 "/>
<path style=" stroke:none;fill-rule:nonzero;fill:rgb(0%,0%,0%);fill-opacity:1;" d="M 9.398438 11.019531 C 9.386719 11.066406 9.378906 11.503906 9.386719 11.988281 L 9.40625 12.863281 L 10.375 12.882812 L 11.335938 12.902344 L 11.335938 10.933594 L 10.386719 10.933594 C 9.667969 10.933594 9.425781 10.953125 9.398438 11.019531 Z M 9.398438 11.019531 "/>
<path style=" stroke:none;fill-rule:nonzero;fill:rgb(0%,0%,0%);fill-opacity:1;" d="M 12.3125 11.523438 L 12.3125 12.117188 L 12.734375 11.796875 C 12.960938 11.621094 13.328125 11.367188 13.550781 11.230469 C 13.773438 11.089844 13.949219 10.972656 13.949219 10.960938 C 13.949219 10.949219 13.582031 10.933594 13.132812 10.933594 L 12.3125 10.933594 Z M 12.3125 11.523438 "/>
<path style=" stroke:none;fill-rule:nonzero;fill:rgb(0%,0%,0%);fill-opacity:1;" d="M 16.921875 11.261719 C 15.25 11.601562 13.914062 12.320312 12.699219 13.542969 C 11.152344 15.097656 10.355469 16.882812 10.242188 19.039062 C 10.046875 22.9375 12.679688 26.5 16.46875 27.460938 C 18.46875 27.964844 20.488281 27.734375 22.335938 26.792969 C 23.839844 26.027344 25.234375 24.628906 25.992188 23.121094 C 26.917969 21.265625 27.089844 18.78125 26.429688 16.800781 C 25.730469 14.726562 24.234375 12.988281 22.292969 12.007812 C 21.566406 11.640625 20.742188 11.359375 20 11.230469 C 19.195312 11.089844 17.683594 11.105469 16.921875 11.261719 Z M 20.101562 13.144531 C 22.457031 13.777344 24.160156 15.476562 24.808594 17.847656 C 25.015625 18.605469 25.011719 20.21875 24.800781 20.996094 C 24.160156 23.390625 22.253906 25.226562 19.859375 25.742188 C 19.234375 25.871094 17.945312 25.890625 17.378906 25.773438 C 14.6875 25.21875 12.734375 23.265625 12.175781 20.574219 C 12.058594 20.011719 12.078125 18.714844 12.214844 18.089844 C 12.535156 16.585938 13.445312 15.167969 14.691406 14.222656 C 15.410156 13.679688 16.671875 13.15625 17.640625 13.007812 C 18.117188 12.925781 19.605469 13.011719 20.101562 13.144531 Z M 20.101562 13.144531 "/>
<path style=" stroke:none;fill-rule:nonzero;fill:rgb(0%,0%,0%);fill-opacity:1;" d="M 17.882812 14.785156 C 17.765625 14.863281 17.613281 15.011719 17.542969 15.128906 C 17.417969 15.332031 17.410156 15.464844 17.410156 17.699219 C 17.410156 19.847656 17.425781 20.074219 17.535156 20.316406 C 17.601562 20.460938 17.730469 20.644531 17.824219 20.714844 C 17.914062 20.789062 18.933594 21.207031 20.082031 21.652344 C 22.324219 22.507812 22.46875 22.539062 22.875 22.273438 C 23.394531 21.933594 23.433594 21.074219 22.945312 20.691406 C 22.859375 20.625 22.023438 20.277344 21.082031 19.917969 L 19.371094 19.265625 L 19.371094 17.351562 C 19.371094 15.226562 19.351562 15.121094 18.960938 14.84375 C 18.679688 14.640625 18.164062 14.613281 17.882812 14.785156 Z M 17.882812 14.785156 "/>
<path style=" stroke:none;fill-rule:nonzero;fill:rgb(0%,0%,0%);fill-opacity:1;" d="M 3.625 14.789062 L 3.625 15.777344 L 4.589844 15.757812 L 5.550781 15.738281 L 5.550781 13.84375 L 4.589844 13.824219 L 3.625 13.804688 Z M 3.625 14.789062 "/>
<path style=" stroke:none;fill-rule:nonzero;fill:rgb(0%,0%,0%);fill-opacity:1;" d="M 6.542969 13.847656 C 6.519531 13.875 6.5 14.320312 6.5 14.835938 L 6.5 15.769531 L 8.464844 15.769531 L 8.445312 14.804688 L 8.425781 13.84375 L 7.503906 13.824219 C 7.003906 13.816406 6.570312 13.828125 6.542969 13.847656 Z M 6.542969 13.847656 "/>
<path style=" stroke:none;fill-rule:nonzero;fill:rgb(0%,0%,0%);fill-opacity:1;" d="M 9.398438 13.894531 C 9.386719 13.941406 9.378906 14.378906 9.386719 14.863281 C 9.40625 15.691406 9.414062 15.738281 9.542969 15.757812 C 9.65625 15.769531 9.699219 15.71875 9.792969 15.484375 C 9.855469 15.320312 10.09375 14.875 10.320312 14.496094 L 10.734375 13.808594 L 10.085938 13.808594 C 9.609375 13.808594 9.425781 13.835938 9.398438 13.894531 Z M 9.398438 13.894531 "/>
<path style=" stroke:none;fill-rule:nonzero;fill:rgb(0%,0%,0%);fill-opacity:1;" d="M 3.667969 16.722656 C 3.644531 16.75 3.625 17.195312 3.625 17.710938 L 3.625 18.652344 L 4.589844 18.632812 L 5.550781 18.613281 L 5.550781 16.71875 L 4.628906 16.699219 C 4.125 16.691406 3.695312 16.703125 3.667969 16.722656 Z M 3.667969 16.722656 "/>
<path style=" stroke:none;fill-rule:nonzero;fill:rgb(0%,0%,0%);fill-opacity:1;" d="M 6.542969 16.722656 C 6.519531 16.75 6.5 17.195312 6.5 17.710938 L 6.5 18.644531 L 8.464844 18.644531 L 8.445312 17.679688 L 8.425781 16.71875 L 7.503906 16.699219 C 7.003906 16.691406 6.570312 16.703125 6.542969 16.722656 Z M 6.542969 16.722656 "/>
</g>
</svg>
